<svg id="combined" xmlns="http://www.w3.org/2000/svg" width="200" height="200" viewBox="0 0 755 755">
  <defs>
    <style>
      .cls-1 {
        fill: #514f59;
        stroke: #e5d4ed;
        stroke-linejoin: round;
        stroke-width: 4px;
        fill-rule: evenodd;
      }
    </style>
  </defs>
  <path id="Color_Fill_3_copy_2" data-name="Color Fill 3 copy 2" class="cls-1" d="M246,41c18.89-.125,36.8,6.3,45,17,4.269,5.574,8.4,18.219,16,20,1.657-4.866,1.077-13.523,1-20q-2.5-8-5-16c-2.617-5.055-7.671-7.361-9-14,20.506,0.151,34.448,12.72,43,25,3.617,5.194,3.321,14.769,11,16,6-13.63,13.836-28.555,20-43,3.037-7.117,3.338-16.443,13-17l1,3c2.769,4.458,2.189,10.57,4,16a133.843,133.843,0,0,0,15,31c2.817,4.275,3.107,9.693,9,11,10.958-19.817,20.51-42.036,51-42v2c-12.629,8.294-15.162,24.584-15,46a14.145,14.145,0,0,0,4,1c11.187-18.073,26.889-36.006,56-36v1h1v2c-13.742,4.963-20.943,28.2-23,45a14.145,14.145,0,0,0,4,1c20.934-34.476,79.986-61.838,119-80,10.492-4.884,24.462-6.375,36-9,6.461-1.47,14.181-.822,16,2,0.752,1.073.6,0.946,1,3-9.157,2.768-33.513,21.305-35,31,6.159,2.085,17.139,1.079,25,1,3.826-2.521,15.549-1.678,19-1v5c-4.639,3.414-7.274,9.609-12,13-7.324,5.255-24.669,7.74-25,19,0.682,0.771,1.311,2.232,2,3,2.811,1.854,10.487,1.128,15,1,2.591-1.918,18.141-7.353,19-7,3.483,1.368,3.074,2.283,3,7-6.686,8.213-9.32,17.853-18,24-4.88,3.456-17.372,5.623-19,12,3.1,1.667,6.486,2.095,12,2,7.951,5.2,24.748-6.634,31-8,1.133,1.546,1.085.843,2,3,2.692,4.978-2.783,10.686-5,14-5.876,8.785-13.049,17.449-22,23-5.771,3.579-16.193,3.456-18,11,2.542,1.372,3.5,1.917,8,2,8.738,5.754,22.444-2.413,30-3q0.5,1.5,1,3c0.752,1.073.6,0.946,1,3-6.58,6.741-9.691,14.82-18,20-5.59,3.485-17.327,2.571-19,10h1v1c9.8,1.18,22.223,6.553,34,4,7.8-1.692,17.261-5,24-4v2c0.752,1.073.6,0.946,1,3-7.412,7.46-11.117,16.841-21,22-6.129,3.2-19.2,2.534-21,10,10.236,4.8,33.126,15.581,50,12,6.253-1.327,12.856-2.818,20-3a18.324,18.324,0,0,1,1,6c-9.1,10.7-14.816,21.263-29,27-7.6,3.075-21.969.518-29,5-0.752,1.073-.6.946-1,3,23.815,11.42,47.071,50.742,53,80H701c-3.829-2.611-32.59-11.207-38-12a14.124,14.124,0,0,0-1,4c25.321,17.255,37.361,74.28,27,116-3.042.075-2.744,0.756-4,0h-2c-8.054-18.052-15.629-44.783-38-48a14.124,14.124,0,0,0-1,4c20.675,21.382,27.9,100.182,5,126-1.754-.631-0.971-0.193-2-1-3.393-.946-3.111-0.385-4-4-2.858-4.934-.412-13.968-2-20-3.121-11.86-12.4-35.767-24-38a15.7,15.7,0,0,0-1,5c6.746,9.687,3.446,31.876,2,44-3.487,29.241-14.4,50.282-28,69-4.837,6.657-9.192,15.512-19,17v-2c-3.041-5.4,1.843-14.191,2-21,0.431-18.715-1.616-60.639-16-64-2.69,7.994-1.082,22.18-1,32-2.387,3.977-.552,9.795-2,15-2.044,7.347-3.891,16.661-7,24-9.971,23.532-24.895,39.733-42,56h-6c0.753-7.008,4.23-12.361,6-18,5.246-16.717,1.793-43.082-3-56-2.47-6.658-2.634-14.314-10-16a25.086,25.086,0,0,0-1,8c2.418,6.619-1.094,25.22-3,32-1.639,5.831-.286,9.761-2,15-6.288,19.222-15.409,36.954-27,51-2.875,3.484-17.727,22.351-23,18-0.8-1.18-.773-1.681-1-4,14.664-16.039,11.031-55.2,6-77a14.124,14.124,0,0,0-4-1l-1,3c-2.055,3.53-.8,9.567-2,14q-4.5,15.5-9,31c-8.67,21.089-20.86,39.544-31,59-3.5,6.71-8.273,29.221-14,32-2.24,1.4-3.276.545-6,0l-20-44c-7.929-13.015-16.751-27.307-23-42-4.267-10.032-7.077-21.964-10-32-1.862-6.392.268-14.917-3-20-1.073-.752-0.946-0.6-3-1v1h-1c-2.082,14.71-7.389,30.869-3,48,2.793,10.9,10.395,23.757,10,33h-5c-6.34-6.254-15.632-9.809-21-17a181.038,181.038,0,0,1-27-53c-2.8-8.685-3.091-19.561-5-28-1.754-7.753,1.707-16.756-2-22-1.073-.752-0.946-0.6-3-1-8.18,17.011-15.138,43.24-8,68,1.653,5.734,5.019,11.148,6,18a21.509,21.509,0,0,1-7,1c-6.837-8.858-18.289-14.772-25-24-18.057-24.831-25.684-57.339-26-100a14.124,14.124,0,0,0-4-1c-3.755,7.469-8.58,14.838-11,24-5.2,19.683,1.8,40.525,2,60a18.324,18.324,0,0,1-6,1c-6.726-8.846-15.919-16.19-22-26-10.936-17.642-13.623-40.467-19-64-3.23-14.138,1.509-31.313,2-43a14.124,14.124,0,0,0-4-1l-11,13c-7.385,11.869-8.665,29.14-10,47-2.091,1.121-1.832,1.434-5,2-1.021-.8-0.274-0.355-2-1-12.42-18.751-15.929-67.813-7-95,1.515-4.613,3.345-12.44,6-17,2.953-5.074,8.59-8.5,10-15a15.7,15.7,0,0,0-5-1c-2.5,3.187-6.564,3.712-10,6-7.124,4.744-15.5,13.762-19,22-3.175,7.478-1.081,19.081-11,20-14.284-24.251-5.934-74.106,7-95,4.44-7.172,13.694-13.3,15-23a14.124,14.124,0,0,0-4-1c-8.873,7.907-34.686,9.977-52,10,0.295-17.984,22.146-51.106,31-63,4.33-5.817,18.3-13.313,20-20H88v-1c-25.724.656-59.01-12.728-59-36,20.674,0.551,38.192,4.066,55-3,6.192-2.6,13.473-1.592,15-9H98v-1c-16.912-.292-40.111-15.851-40-33a21.506,21.506,0,0,1,7-1c8.177,6.775,49.613,7.836,52-4h-1v-1c-16.044-.807-32.37-13.51-34-29,1.9-1.34.874-1.283,4-2,6.827,5.644,29.534,6.945,37,1,0.752-1.073.6-.946,1-3-20.01-8.919-47.936-19.034-48-47a15.705,15.705,0,0,1,5-1c5.053,5.007,28.99,13.8,39,6,0.752-1.073.6-.946,1-3-16.185-7.058-36.655-18.692-37-41a2.838,2.838,0,0,0,1-1c4.126,1.075,6.71,3.622,10,5,8.562,3.586,19.354,3.3,29,3a2.839,2.839,0,0,1,1-1q0.5-4,1-8c-11.629-5.117-38.429-17.236-39-32a25.081,25.081,0,0,1,8-1c3.972,2.661,30.142,2.114,33,0,0.752-1.073.6-.946,1-3-8.3-7.524-15.508-16.656-25-23-4.63-3.094-8.938-2.1-10-9,16.055-2.147,32.128,3.16,45,7,38.573,11.509,69.189,29.851,98,51,8.472,6.219,21.079,25.916,31,28a25.085,25.085,0,0,0,1-8c-1.581-2.5-.751-5.719-2-9-3.341-8.775-11.944-22.893-21-26V41Z"/>
</svg>
